<?xml version="1.0" standalone="no"?><!DOCTYPE svg PUBLIC "-//W3C//DTD SVG 1.1//EN" "http://www.w3.org/Graphics/SVG/1.1/DTD/svg11.dtd"><svg t="1613743618424" class="icon" viewBox="0 0 1024 1024" version="1.1" xmlns="http://www.w3.org/2000/svg" p-id="2615" xmlns:xlink="http://www.w3.org/1999/xlink" width="128" height="128"><defs><style type="text/css"></style></defs><path d="M511.837091 47.034182a465.454545 465.454545 0 0 1 465.291636 464.593454 465.454545 465.454545 0 0 1-465.291636 464.616728A465.454545 465.454545 0 0 1 46.545455 511.627636 465.454545 465.454545 0 0 1 511.837091 47.034182z m0 862.510545a398.661818 398.661818 0 0 0 398.592-397.917091 398.685091 398.685091 0 0 0-398.522182-397.963636 398.685091 398.685091 0 0 0-398.522182 397.963636 398.685091 398.685091 0 0 0 398.522182 397.963637z m0 0" p-id="2616"></path><path d="M563.386182 727.482182a51.525818 51.525818 0 1 0-51.549091 51.525818 51.549091 51.549091 0 0 0 51.549091-51.525818z m0 0" p-id="2617"></path><path d="M511.837091 240.989091a34.350545 34.350545 0 0 1 34.350545 34.350545v309.224728a34.350545 34.350545 0 0 1-68.724363 0V275.339636a34.350545 34.350545 0 0 1 34.350545-34.350545z m0 0" p-id="2618"></path></svg>