<?xml version="1.0" standalone="no"?><!DOCTYPE svg PUBLIC "-//W3C//DTD SVG 1.1//EN" "http://www.w3.org/Graphics/SVG/1.1/DTD/svg11.dtd"><svg t="1613748786553" class="icon" viewBox="0 0 1024 1024" version="1.1" xmlns="http://www.w3.org/2000/svg" p-id="5659" xmlns:xlink="http://www.w3.org/1999/xlink" width="128" height="128"><defs><style type="text/css"></style></defs><path d="M218.496 576H704a64 64 0 0 0 0-128H218.496l82.752-82.752a64 64 0 0 0-90.496-90.496l-192 192a64 64 0 0 0 0 90.496l192 192a64 64 0 1 0 90.496-90.496z" p-id="5660"></path><path d="M960 0H448a64 64 0 0 0-64 64v128a64 64 0 0 0 128 0V128h384v768H512v-64a64 64 0 0 0-128 0v128a64 64 0 0 0 64 64h512a64 64 0 0 0 64-64V64a64 64 0 0 0-64-64z" p-id="5661"></path></svg>