<?xml version="1.0" standalone="no"?><!DOCTYPE svg PUBLIC "-//W3C//DTD SVG 1.1//EN" "http://www.w3.org/Graphics/SVG/1.1/DTD/svg11.dtd"><svg t="1613748807156" class="icon" viewBox="0 0 1024 1024" version="1.1" xmlns="http://www.w3.org/2000/svg" p-id="6400" xmlns:xlink="http://www.w3.org/1999/xlink" width="128" height="128"><defs><style type="text/css"></style></defs><path d="M946.5 929.5H821.2c-15.2 0-27.5-12.3-27.5-27.5s12.3-27.5 27.5-27.5h125.3c12.4 0 22.5-10.1 22.5-22.5V172c0-12.4-10.1-22.5-22.5-22.5H611.2c-15.2 0-27.5-12.3-27.5-27.5s12.3-27.5 27.5-27.5h335.3c42.7 0 77.5 34.8 77.5 77.5v680c0 42.7-34.8 77.5-77.5 77.5z m-32-644c0-15.2-12.3-27.5-27.5-27.5H688c-15.2 0-27.5 12.3-27.5 27.5S672.8 313 688 313h199c15.2 0 27.5-12.3 27.5-27.5z m0 150c0-15.2-12.3-27.5-27.5-27.5H688c-15.2 0-27.5 12.3-27.5 27.5S672.8 463 688 463h199c15.2 0 27.5-12.3 27.5-27.5z m0 150c0-15.2-12.3-27.5-27.5-27.5H751c-15.2 0-27.5 12.3-27.5 27.5S735.8 613 751 613h136c15.2 0 27.5-12.3 27.5-27.5z m-180 315.1c0 15.2-12.3 27.5-27.5 27.5s-27.5-12.3-27.5-27.5c0-172.2-140.1-312.2-312.2-312.2C195.1 588.3 55 728.4 55 900.6c0 15.2-12.3 27.5-27.5 27.5S0 915.8 0 900.6c0-49.6 9.7-97.7 28.9-143 18.5-43.7 45-83 78.7-116.7s73-60.2 116.7-78.7c11.6-4.9 23.3-9.2 35.3-12.8C181.4 510 127.8 429 127.8 335.5 127.8 203.2 235 96 367.3 96s239.5 107.2 239.5 239.5c0 93.5-53.6 174.5-131.8 213.9 11.9 3.7 23.7 7.9 35.3 12.8 43.7 18.5 83 45 116.7 78.7s60.2 73 78.7 116.7c19.1 45.3 28.8 93.4 28.8 143zM236.8 465.9c34.8 34.8 81.2 54 130.5 54s95.6-19.2 130.5-54c34.8-34.8 54-81.2 54-130.5s-19.2-95.6-54-130.5c-34.8-34.8-81.2-54-130.5-54s-95.6 19.2-130.5 54c-34.8 34.8-54 81.2-54 130.5s19.2 95.6 54 130.5z" p-id="6401"></path></svg>